<!-- Generated by IcoMoon.io -->
<svg version="1.1" xmlns="http://www.w3.org/2000/svg" width="24" height="24" viewBox="0 0 24 24">
<title>th-large-outline</title>
<path d="M9 2h-5c-1.103 0-2 0.896-2 2v5c0 1.104 0.897 2 2 2h5c1.103 0 2-0.896 2-2v-5c0-1.104-0.897-2-2-2zM9 9h-5v-5h5v5z"></path>
<path d="M20 2h-5c-1.104 0-2 0.896-2 2v5c0 1.104 0.896 2 2 2h5c1.104 0 2-0.896 2-2v-5c0-1.104-0.896-2-2-2zM20 9h-5v-5h5v5z"></path>
<path d="M9 13h-5c-1.103 0-2 0.896-2 2v5c0 1.104 0.897 2 2 2h5c1.103 0 2-0.896 2-2v-5c0-1.104-0.897-2-2-2zM9 20h-5v-5h5v5z"></path>
<path d="M20 13h-5c-1.104 0-2 0.896-2 2v5c0 1.104 0.896 2 2 2h5c1.104 0 2-0.896 2-2v-5c0-1.104-0.896-2-2-2zM20 20h-5v-5h5v5z"></path>
</svg>
