<svg aria-hidden="true" style="position: absolute; width: 0; height: 0; overflow: hidden;" version="1.1" xmlns="http://www.w3.org/2000/svg" xmlns:xlink="http://www.w3.org/1999/xlink">
<defs>
<symbol id="icon-plus" viewBox="0 0 24 24">
<title>plus</title>
<path d="M18 10h-4v-4c0-1.104-0.896-2-2-2s-2 0.896-2 2l0.071 4h-4.071c-1.104 0-2 0.896-2 2s0.896 2 2 2l4.071-0.071-0.071 4.071c0 1.104 0.896 2 2 2s2-0.896 2-2v-4.071l4 0.071c1.104 0 2-0.896 2-2s-0.896-2-2-2z"></path>
</symbol>
<symbol id="icon-minus" viewBox="0 0 24 24">
<title>minus</title>
<path d="M18 11h-12c-1.104 0-2 0.896-2 2s0.896 2 2 2h12c1.104 0 2-0.896 2-2s-0.896-2-2-2z"></path>
</symbol>
<symbol id="icon-chevron-right" viewBox="0 0 24 24">
<title>chevron-right</title>
<path d="M8.586 5.586c-0.781 0.781-0.781 2.047 0 2.828l3.585 3.586-3.585 3.586c-0.781 0.781-0.781 2.047 0 2.828 0.39 0.391 0.902 0.586 1.414 0.586s1.024-0.195 1.414-0.586l6.415-6.414-6.415-6.414c-0.78-0.781-2.048-0.781-2.828 0z"></path>
</symbol>
<symbol id="icon-th-small" viewBox="0 0 24 24">
<title>th-small</title>
<path d="M7.5 19c0 1.381-1.119 2.5-2.5 2.5s-2.5-1.119-2.5-2.5c0-1.381 1.119-2.5 2.5-2.5s2.5 1.119 2.5 2.5z"></path>
<path d="M7.5 12c0 1.381-1.119 2.5-2.5 2.5s-2.5-1.119-2.5-2.5c0-1.381 1.119-2.5 2.5-2.5s2.5 1.119 2.5 2.5z"></path>
<path d="M7.5 5c0 1.381-1.119 2.5-2.5 2.5s-2.5-1.119-2.5-2.5c0-1.381 1.119-2.5 2.5-2.5s2.5 1.119 2.5 2.5z"></path>
<path d="M14.5 19c0 1.381-1.119 2.5-2.5 2.5s-2.5-1.119-2.5-2.5c0-1.381 1.119-2.5 2.5-2.5s2.5 1.119 2.5 2.5z"></path>
<path d="M14.5 12c0 1.381-1.119 2.5-2.5 2.5s-2.5-1.119-2.5-2.5c0-1.381 1.119-2.5 2.5-2.5s2.5 1.119 2.5 2.5z"></path>
<path d="M14.5 5c0 1.381-1.119 2.5-2.5 2.5s-2.5-1.119-2.5-2.5c0-1.381 1.119-2.5 2.5-2.5s2.5 1.119 2.5 2.5z"></path>
<path d="M21.5 19c0 1.381-1.119 2.5-2.5 2.5s-2.5-1.119-2.5-2.5c0-1.381 1.119-2.5 2.5-2.5s2.5 1.119 2.5 2.5z"></path>
<path d="M21.5 12c0 1.381-1.119 2.5-2.5 2.5s-2.5-1.119-2.5-2.5c0-1.381 1.119-2.5 2.5-2.5s2.5 1.119 2.5 2.5z"></path>
<path d="M21.5 5c0 1.381-1.119 2.5-2.5 2.5s-2.5-1.119-2.5-2.5c0-1.381 1.119-2.5 2.5-2.5s2.5 1.119 2.5 2.5z"></path>
</symbol>
<symbol id="icon-th-large" viewBox="0 0 24 24">
<title>th-large</title>
<path d="M8 3h-2c-0.825 0-1.575 0.337-2.119 0.881s-0.881 1.294-0.881 2.119v2c0 0.825 0.337 1.575 0.881 2.119s1.294 0.881 2.119 0.881h2c0.825 0 1.575-0.337 2.119-0.881s0.881-1.294 0.881-2.119v-2c0-0.825-0.337-1.575-0.881-2.119s-1.294-0.881-2.119-0.881z"></path>
<path d="M18 3h-2c-0.825 0-1.575 0.337-2.119 0.881s-0.881 1.294-0.881 2.119v2c0 0.825 0.337 1.575 0.881 2.119s1.294 0.881 2.119 0.881h2c0.825 0 1.575-0.337 2.119-0.881s0.881-1.294 0.881-2.119v-2c0-0.825-0.337-1.575-0.881-2.119s-1.294-0.881-2.119-0.881z"></path>
<path d="M8 13h-2c-0.825 0-1.575 0.337-2.119 0.881s-0.881 1.294-0.881 2.119v2c0 0.825 0.337 1.575 0.881 2.119s1.294 0.881 2.119 0.881h2c0.825 0 1.575-0.337 2.119-0.881s0.881-1.294 0.881-2.119v-2c0-0.825-0.337-1.575-0.881-2.119s-1.294-0.881-2.119-0.881z"></path>
<path d="M18 13h-2c-0.825 0-1.575 0.337-2.119 0.881s-0.881 1.294-0.881 2.119v2c0 0.825 0.337 1.575 0.881 2.119s1.294 0.881 2.119 0.881h2c0.825 0 1.575-0.337 2.119-0.881s0.881-1.294 0.881-2.119v-2c0-0.825-0.337-1.575-0.881-2.119s-1.294-0.881-2.119-0.881z"></path>
</symbol>
<symbol id="icon-flash" viewBox="0 0 24 24">
<title>flash</title>
<path d="M17.502 12.033l-4.241-2.458 2.138-5.131c0.066-0.134 0.103-0.285 0.103-0.444 0-0.552-0.445-1-0.997-1-0.249 0.004-0.457 0.083-0.622 0.214-0.033 0.026-0.053 0.042-0.070 0.060l-7.5 7.1c-0.229 0.217-0.342 0.529-0.306 0.842s0.219 0.591 0.491 0.75l4.242 2.46-2.163 5.19c-0.183 0.436-0.034 0.94 0.354 1.208 0.173 0.118 0.372 0.176 0.569 0.176 0.248 0 0.496-0.093 0.688-0.274l7.5-7.102c0.229-0.217 0.342-0.529 0.306-0.842-0.037-0.313-0.22-0.591-0.492-0.749z"></path>
</symbol>
<symbol id="icon-chart-line" viewBox="0 0 24 24">
<title>chart-line</title>
<path d="M4.75 15.561c0.369 0.294 0.811 0.439 1.248 0.439 0.588 0 1.168-0.258 1.563-0.752l2.789-3.486 2.45 1.838c0.864 0.648 2.088 0.492 2.762-0.352l4-5c0.69-0.861 0.55-2.121-0.312-2.811-0.863-0.689-2.121-0.551-2.812 0.312l-2.789 3.486-2.449-1.835c-0.864-0.648-2.087-0.494-2.762 0.35l-4 5c-0.69 0.863-0.549 2.121 0.312 2.811z"></path>
<path d="M5 21h14c0.553 0 1-0.447 1-1s-0.447-1-1-1h-14c-0.553 0-1 0.447-1 1s0.447 1 1 1z"></path>
</symbol>
<symbol id="icon-key" viewBox="0 0 24 24">
<title>key</title>
<path d="M8.5 11c0 0.732 0.166 1.424 0.449 2.051l-3.949 3.949c0 0 0 0.672 0 1.5s0.896 1.5 2 1.5h2v-2h2v-2c0 0 2.329 0 2.5 0 2.762 0 5-2.238 5-5s-2.238-5-5-5-5 2.238-5 5zM13.5 13c-1.104 0-2-0.896-2-2 0-1.105 0.896-2.002 2-2.002 1.105 0 2 0.896 2 2.002 0 1.104-0.895 2-2 2z"></path>
</symbol>
<symbol id="icon-zoom" viewBox="0 0 24 24">
<title>zoom</title>
<path d="M13 4c-3.859 0-7 3.141-7 7 0 0.763 0.127 1.495 0.354 2.183l-1.26 1.262-1.008 1.045c-0.562 0.557-0.891 1.345-0.891 2.185 0 1.727 1.404 3.131 3.13 3.131 0.757 0 1.504-0.278 2.104-0.784l0.064-0.055 0.061-0.061 2.262-2.259c0.688 0.226 1.421 0.353 2.184 0.353 3.859 0 7-3.141 7-7s-3.141-7-7-7zM13 16c-2.757 0-5-2.243-5-5s2.243-5 5-5 5 2.243 5 5-2.243 5-5 5z"></path>
<path d="M13 7c-2.205 0-4 1.794-4 4s1.795 4 4 4 4-1.794 4-4-1.795-4-4-4zM13 14c-1.656 0-3-1.344-3-3s1.344-3 3-3 3 1.344 3 3-1.344 3-3 3z"></path>
</symbol>
<symbol id="icon-social-github" viewBox="0 0 24 24">
<title>social-github</title>
<path d="M14.435 12.973c0.269 0 0.492 0.133 0.686 0.396 0.192 0.265 0.294 0.588 0.294 0.975 0 0.385-0.102 0.711-0.294 0.973-0.193 0.265-0.417 0.396-0.686 0.396-0.278 0-0.522-0.131-0.715-0.396-0.192-0.262-0.294-0.588-0.294-0.973 0-0.387 0.102-0.71 0.294-0.975 0.192-0.264 0.436-0.396 0.715-0.396M17.875 9.414c0.746 0.811 1.125 1.795 1.125 2.953 0 0.748-0.086 1.423-0.259 2.023-0.175 0.597-0.394 1.084-0.654 1.459-0.264 0.376-0.588 0.705-0.974 0.989-0.386 0.286-0.741 0.492-1.065 0.623-0.325 0.132-0.695 0.233-1.111 0.306-0.417 0.071-0.726 0.111-0.943 0.123-0.213 0.009-0.438 0.014-0.685 0.014-0.055 0-0.243 0.004-0.547 0.015-0.301 0.013-0.56 0.016-0.762 0.016s-0.461-0.003-0.762-0.016c-0.304-0.011-0.492-0.015-0.547-0.015-0.246 0-0.472-0.005-0.685-0.014-0.218-0.012-0.526-0.052-0.943-0.123-0.423-0.072-0.786-0.174-1.111-0.306-0.324-0.131-0.68-0.337-1.064-0.623-0.387-0.284-0.711-0.613-0.975-0.989-0.261-0.375-0.479-0.862-0.654-1.459-0.173-0.6-0.259-1.275-0.259-2.023 0-1.158 0.379-2.143 1.125-2.953-0.082-0.041-0.085-0.447-0.008-1.217 0.063-0.771 0.227-1.482 0.495-2.132 0.934 0.099 2.090 0.629 3.471 1.581 0.466-0.119 1.101-0.183 1.917-0.183 0.852 0 1.491 0.064 1.918 0.184 0.629-0.425 1.23-0.771 1.805-1.034 0.584-0.261 1.005-0.416 1.269-0.457l0.396-0.090c0.27 0.649 0.434 1.36 0.496 2.132 0.076 0.769 0.073 1.175-0.009 1.216M12.030 17.234c1.688 0 2.954-0.202 3.821-0.607 0.855-0.404 1.292-1.238 1.292-2.496 0-0.73-0.273-1.34-0.822-1.828-0.278-0.263-0.613-0.425-0.989-0.486s-0.949-0.061-1.72 0c-0.769 0.062-1.298 0.090-1.582 0.090-0.385 0-0.8-0.018-1.319-0.059-0.52-0.040-0.928-0.065-1.223-0.078-0.294-0.009-0.609 0.027-0.958 0.108-0.345 0.082-0.629 0.224-0.853 0.425-0.521 0.469-0.79 1.077-0.79 1.828 0 1.258 0.426 2.092 1.28 2.496 0.85 0.405 2.113 0.607 3.802 0.607h0.061M9.596 12.973c0.268 0 0.492 0.133 0.685 0.396 0.192 0.265 0.294 0.588 0.294 0.975 0 0.385-0.102 0.711-0.294 0.973-0.192 0.265-0.417 0.396-0.685 0.396-0.279 0-0.522-0.131-0.716-0.396-0.192-0.262-0.294-0.588-0.294-0.973 0-0.387 0.102-0.71 0.294-0.975 0.193-0.264 0.436-0.396 0.716-0.396"></path>
</symbol>
<symbol id="icon-tick-outline" viewBox="0 0 24 24">
<title>tick-outline</title>
<path d="M11 20c-0.801 0-1.555-0.312-2.121-0.879l-4-4c-0.567-0.566-0.879-1.32-0.879-2.121s0.312-1.555 0.879-2.122c1.133-1.133 3.109-1.133 4.242 0l1.188 1.188 3.069-5.523c0.526-0.952 1.533-1.544 2.624-1.544 0.507 0 1.012 0.131 1.456 0.378 0.7 0.39 1.206 1.028 1.427 1.798s0.127 1.581-0.263 2.282l-5 9c-0.454 0.818-1.279 1.384-2.206 1.514-0.139 0.019-0.277 0.029-0.416 0.029zM7 12c-0.268 0-0.518 0.104-0.707 0.293s-0.293 0.439-0.293 0.707 0.104 0.518 0.293 0.707l4 4c0.223 0.221 0.523 0.33 0.844 0.283 0.312-0.043 0.586-0.232 0.737-0.504l5-9c0.13-0.233 0.161-0.503 0.088-0.76s-0.243-0.47-0.478-0.6c-0.473-0.264-1.101-0.078-1.357 0.388l-4.357 7.841-3.062-3.062c-0.19-0.189-0.44-0.293-0.708-0.293z"></path>
</symbol>
<symbol id="icon-th-large-outline" viewBox="0 0 24 24">
<title>th-large-outline</title>
<path d="M9 2h-5c-1.103 0-2 0.896-2 2v5c0 1.104 0.897 2 2 2h5c1.103 0 2-0.896 2-2v-5c0-1.104-0.897-2-2-2zM9 9h-5v-5h5v5z"></path>
<path d="M20 2h-5c-1.104 0-2 0.896-2 2v5c0 1.104 0.896 2 2 2h5c1.104 0 2-0.896 2-2v-5c0-1.104-0.896-2-2-2zM20 9h-5v-5h5v5z"></path>
<path d="M9 13h-5c-1.103 0-2 0.896-2 2v5c0 1.104 0.897 2 2 2h5c1.103 0 2-0.896 2-2v-5c0-1.104-0.897-2-2-2zM9 20h-5v-5h5v5z"></path>
<path d="M20 13h-5c-1.104 0-2 0.896-2 2v5c0 1.104 0.896 2 2 2h5c1.104 0 2-0.896 2-2v-5c0-1.104-0.896-2-2-2zM20 20h-5v-5h5v5z"></path>
</symbol>
<symbol id="icon-chevron-right-outline" viewBox="0 0 24 24">
<title>chevron-right-outline</title>
<path d="M10 20c-0.802 0-1.555-0.312-2.122-0.879-0.566-0.566-0.878-1.32-0.878-2.121s0.312-1.555 0.879-2.122l2.878-2.878-2.878-2.879c-0.567-0.566-0.879-1.32-0.879-2.121s0.312-1.555 0.879-2.122c1.133-1.132 3.109-1.133 4.243 0.001l7.121 7.121-7.122 7.121c-0.566 0.567-1.319 0.879-2.121 0.879zM10 6c-0.268 0-0.518 0.104-0.707 0.292-0.189 0.19-0.293 0.441-0.293 0.708s0.104 0.518 0.293 0.707l4.292 4.293-4.292 4.293c-0.189 0.189-0.293 0.439-0.293 0.707s0.104 0.518 0.293 0.707c0.378 0.379 1.037 0.378 1.414 0.001l5.708-5.708-5.708-5.707c-0.189-0.189-0.439-0.293-0.707-0.293z"></path>
</symbol>
<symbol id="icon-th-small-outline" viewBox="0 0 24 24">
<title>th-small-outline</title>
<path d="M6 16h-2c-1.104 0-2 0.896-2 2v2c0 1.104 0.896 2 2 2h2c1.104 0 2-0.896 2-2v-2c0-1.104-0.896-2-2-2zM6 20h-2v-2h2v2z"></path>
<path d="M6 9h-2c-1.104 0-2 0.896-2 2v2c0 1.104 0.896 2 2 2h2c1.104 0 2-0.896 2-2v-2c0-1.104-0.896-2-2-2zM6 13h-2v-2h2v2z"></path>
<path d="M6 2h-2c-1.104 0-2 0.896-2 2v2c0 1.104 0.896 2 2 2h2c1.104 0 2-0.896 2-2v-2c0-1.104-0.896-2-2-2zM6 6h-2v-2h2v2z"></path>
<path d="M13 16h-2c-1.104 0-2 0.896-2 2v2c0 1.104 0.896 2 2 2h2c1.104 0 2-0.896 2-2v-2c0-1.104-0.896-2-2-2zM13 20h-2v-2h2v2z"></path>
<path d="M13 9h-2c-1.104 0-2 0.896-2 2v2c0 1.104 0.896 2 2 2h2c1.104 0 2-0.896 2-2v-2c0-1.104-0.896-2-2-2zM13 13h-2v-2h2v2z"></path>
<path d="M13 2h-2c-1.104 0-2 0.896-2 2v2c0 1.104 0.896 2 2 2h2c1.104 0 2-0.896 2-2v-2c0-1.104-0.896-2-2-2zM13 6h-2v-2h2v2z"></path>
<path d="M20 16h-2c-1.104 0-2 0.896-2 2v2c0 1.104 0.896 2 2 2h2c1.104 0 2-0.896 2-2v-2c0-1.104-0.896-2-2-2zM20 20h-2v-2h2v2z"></path>
<path d="M20 9h-2c-1.104 0-2 0.896-2 2v2c0 1.104 0.896 2 2 2h2c1.104 0 2-0.896 2-2v-2c0-1.104-0.896-2-2-2zM20 13h-2v-2h2v2z"></path>
<path d="M20 2h-2c-1.104 0-2 0.896-2 2v2c0 1.104 0.896 2 2 2h2c1.104 0 2-0.896 2-2v-2c0-1.104-0.896-2-2-2zM20 6h-2v-2h2v2z"></path>
</symbol>
<symbol id="icon-home-outline" viewBox="0 0 24 24">
<title>home-outline</title>
<path d="M22.262 10.468c-3.39-2.854-9.546-8.171-9.607-8.225l-0.655-0.563-0.652 0.563c-0.062 0.053-6.221 5.368-9.66 8.248-0.438 0.394-0.688 0.945-0.688 1.509 0 1.104 0.896 2 2 2h1v6c0 1.104 0.896 2 2 2h12c1.104 0 2-0.896 2-2v-6h1c1.104 0 2-0.896 2-2 0-0.598-0.275-1.161-0.738-1.532zM14 20h-4v-5h4v5zM18 12l0.002 8c-0.002 0-3.002 0-3.002 0v-6h-6v6h-3v-8h-3.001c2.765-2.312 7.315-6.227 9.001-7.68 1.686 1.453 6.234 5.367 9 7.681 0 0-3 0-3-0.001z"></path>
</symbol>
<symbol id="icon-message" viewBox="0 0 24 24">
<title>message</title>
<path d="M18 7c0.542 0 1 0.458 1 1v7c0 0.542-0.458 1-1 1h-8.829l-0.171 0.171v-0.171h-3c-0.542 0-1-0.458-1-1v-7c0-0.542 0.458-1 1-1h12M18 5h-12c-1.65 0-3 1.35-3 3v7c0 1.65 1.35 3 3 3h1v3l3-3h8c1.65 0 3-1.35 3-3v-7c0-1.65-1.35-3-3-3z"></path>
</symbol>
<symbol id="icon-flash-outline" viewBox="0 0 24 24">
<title>flash-outline</title>
<path d="M14.5 4h0.005M14.5 4l-2.5 6 5 2.898-7.5 7.102 2.5-6-5-2.9 7.5-7.1M14.5 2c-0.562 0.012-1.029 0.219-1.379 0.551l-7.497 7.095c-0.458 0.435-0.685 1.059-0.61 1.686 0.072 0.626 0.437 1.182 0.982 1.498l3.482 2.021-1.826 4.381c-0.362 0.871-0.066 1.879 0.712 2.416 0.344 0.236 0.739 0.354 1.135 0.354 0.498 0 0.993-0.186 1.375-0.548l7.5-7.103c0.458-0.434 0.685-1.058 0.61-1.685-0.073-0.627-0.438-1.183-0.982-1.498l-3.482-2.018 1.789-4.293c0.123-0.26 0.192-0.551 0.192-0.857 0-1.102-0.89-1.996-2.001-2z"></path>
</symbol>
<symbol id="icon-chart-line-outline" viewBox="0 0 24 24">
<title>chart-line-outline</title>
<path d="M5.999 17c-0.677 0-1.342-0.234-1.873-0.658-0.626-0.501-1.019-1.215-1.107-2.011s0.138-1.58 0.639-2.206l4-5c0.978-1.225 2.883-1.471 4.143-0.523l1.674 1.254 2.184-2.729c0.571-0.716 1.425-1.127 2.342-1.127 0.679 0 1.343 0.232 1.873 0.657 0.626 0.501 1.021 1.216 1.108 2.013s-0.14 1.58-0.641 2.204l-4 5c-0.977 1.226-2.882 1.471-4.143 0.526l-1.674-1.256-2.184 2.729c-0.57 0.716-1.424 1.127-2.341 1.127zM10 8c-0.306 0-0.591 0.137-0.781 0.374l-4 5.001c-0.167 0.208-0.243 0.471-0.213 0.734 0.030 0.266 0.161 0.504 0.369 0.67 0.228 0.183 0.465 0.221 0.624 0.221 0.306 0 0.591-0.137 0.782-0.376l3.395-4.244 3.224 2.42c0.42 0.316 1.056 0.231 1.381-0.176l4-5.001c0.167-0.208 0.242-0.469 0.213-0.734-0.030-0.266-0.161-0.504-0.369-0.67-0.227-0.182-0.464-0.22-0.624-0.22-0.306 0-0.591 0.137-0.782 0.376l-3.395 4.242-3.224-2.417c-0.175-0.132-0.382-0.2-0.6-0.2z"></path>
<path d="M19 21h-14c-0.552 0-1-0.447-1-1s0.448-1 1-1h14c0.552 0 1 0.447 1 1s-0.448 1-1 1z"></path>
</symbol>
<symbol id="icon-chart-area-outline" viewBox="0 0 24 24">
<title>chart-area-outline</title>
<path d="M20 17h-16c-0.552 0-1-0.447-1-1v-3c0-0.68 0.234-1.346 0.658-1.874l4-5c0.98-1.226 2.885-1.469 4.143-0.524l1.674 1.254 2.185-2.729c0.57-0.717 1.424-1.127 2.341-1.127 0.679 0 1.343 0.232 1.873 0.657 0.716 0.572 1.126 1.426 1.126 2.343v10c0 0.553-0.448 1-1 1zM5 15h14v-9c0-0.307-0.137-0.59-0.375-0.779-0.227-0.183-0.465-0.221-0.624-0.221-0.306 0-0.591 0.137-0.782 0.376l-2.789 3.485c-0.337 0.423-0.949 0.5-1.381 0.176l-2.449-1.837c-0.422-0.316-1.055-0.233-1.381 0.176l-4 5c-0.181 0.228-0.219 0.464-0.219 0.624v2z"></path>
<path d="M20 21h-16c-0.552 0-1-0.447-1-1s0.448-1 1-1h16c0.552 0 1 0.447 1 1s-0.448 1-1 1z"></path>
</symbol>
<symbol id="icon-key-outline" viewBox="0 0 24 24">
<title>key-outline</title>
<path d="M10 21h-6v-4.414l3.783-3.783c-0.187-0.587-0.283-1.192-0.283-1.803 0-3.309 2.691-6 6-6s6 2.691 6 6-2.691 6-6 6h-1.5v2h-2v2zM6 19h2v-2h2v-2h3.5c2.206 0 4-1.794 4-4s-1.794-4-4-4-4 1.794-4 4c0 0.559 0.121 1.109 0.359 1.639l0.285 0.631-4.144 4.144v1.586z"></path>
<path d="M13.5 9.998c0.551 0 1 0.449 1 1.002 0 0.552-0.449 1-1 1s-1-0.448-1-1c0-0.553 0.449-1.002 1-1.002M13.5 8.998c-1.104 0-2 0.896-2 2.002 0 1.104 0.896 2 2 2 1.105 0 2-0.896 2-2 0-1.105-0.895-2.002-2-2.002z"></path>
</symbol>
<symbol id="icon-cog-outline" viewBox="0 0 24 24">
<title>cog-outline</title>
<path d="M13 5l0.855 3.42 3.389-0.971 1.501 2.6-2.535 2.449 2.535 2.451-1.5 2.6-3.39-0.971-0.855 3.422h-3l-0.855-3.422-3.39 0.971-1.501-2.6 2.535-2.451-2.534-2.449 1.5-2.6 3.39 0.971 0.855-3.42h3M13 3h-3c-0.918 0-1.718 0.625-1.939 1.516l-0.354 1.412-1.4-0.4c-0.184-0.053-0.369-0.078-0.552-0.078-0.7 0-1.368 0.37-1.731 1l-1.5 2.6c-0.459 0.796-0.317 1.802 0.342 2.438l1.047 1.011-1.048 1.015c-0.66 0.637-0.802 1.643-0.343 2.438l1.502 2.6c0.363 0.631 1.031 1 1.731 1 0.183 0 0.368-0.025 0.552-0.076l1.399-0.401 0.354 1.415c0.222 0.885 1.022 1.51 1.94 1.51h3c0.918 0 1.718-0.625 1.939-1.516l0.354-1.414 1.399 0.4c0.184 0.053 0.369 0.077 0.552 0.077 0.7 0 1.368-0.37 1.731-1l1.5-2.6c0.459-0.796 0.317-1.8-0.342-2.438l-1.047-1.013 1.047-1.013c0.66-0.637 0.801-1.644 0.342-2.438l-1.5-2.6c-0.365-0.631-1.031-1-1.732-1-0.184 0-0.368 0.025-0.551 0.076l-1.4 0.401-0.354-1.413c-0.22-0.884-1.020-1.509-1.938-1.509z"></path>
<path d="M11.5 10.5c1.104 0 2 0.895 2 2s-0.896 2-2 2-2-0.896-2-2c0-1.105 0.896-2 2-2M11.5 9.5c-1.654 0-3 1.346-3 3s1.346 3 3 3 3-1.346 3-3-1.346-3-3-3z"></path>
</symbol>
<symbol id="icon-zoom-outline" viewBox="0 0 24 24">
<title>zoom-outline</title>
<path d="M14 8c1.656 0 3 1.344 3 3s-1.344 3-3 3-3-1.344-3-3 1.344-3 3-3M14 7c-2.206 0-4 1.794-4 4s1.794 4 4 4 4-1.794 4-4-1.794-4-4-4z"></path>
<path d="M4.195 17.674c0 1.727 1.404 3.131 3.131 3.131 0.756 0 1.503-0.277 2.104-0.783l2.397-2.386c0.685 0.227 1.412 0.364 2.173 0.364 3.86 0 7-3.141 7-7s-3.14-7-7-7c-3.859 0-7 3.141-7 7 0 0.761 0.136 1.486 0.364 2.173l-2.245 2.283c-0.596 0.59-0.924 1.378-0.924 2.218zM10.654 15.98l-2.512 2.511c-0.223 0.187-0.504 0.313-0.816 0.313-0.624 0-1.131-0.506-1.131-1.131 0-0.311 0.127-0.594 0.332-0.797l2.492-2.531c0.435 0.645 0.99 1.2 1.635 1.635zM14 16c-2.757 0-5-2.243-5-5s2.243-5 5-5 5 2.243 5 5-2.243 5-5 5z"></path>
</symbol>
<symbol id="icon-social-github-circular" viewBox="0 0 24 24">
<title>social-github-circular</title>
<path d="M12 21c-4.963 0-9-4.038-9-9s4.037-9 9-9 9 4.038 9 9-4.037 9-9 9zM12 5c-3.859 0-7 3.14-7 7s3.141 7 7 7 7-3.14 7-7-3.141-7-7-7z"></path>
<path d="M13.565 12.626c0.171 0 0.316 0.084 0.441 0.255 0.124 0.169 0.187 0.378 0.187 0.625s-0.062 0.457-0.187 0.626c-0.125 0.169-0.271 0.254-0.441 0.254-0.181 0-0.337-0.084-0.461-0.254s-0.187-0.378-0.187-0.626c0-0.248 0.062-0.456 0.187-0.625 0.125-0.171 0.281-0.255 0.461-0.255M15.775 10.337c0.482 0.522 0.725 1.155 0.725 1.898 0 0.482-0.057 0.915-0.166 1.301-0.111 0.384-0.252 0.698-0.42 0.939-0.171 0.242-0.378 0.454-0.627 0.635-0.249 0.184-0.478 0.316-0.685 0.401-0.208 0.085-0.446 0.15-0.716 0.196-0.266 0.047-0.467 0.072-0.606 0.079-0.135 0.006-0.282 0.009-0.44 0.009-0.035 0-0.155 0.004-0.352 0.010-0.193 0.008-0.359 0.011-0.488 0.011s-0.295-0.003-0.488-0.011c-0.196-0.006-0.316-0.010-0.352-0.010-0.158 0-0.306-0.002-0.44-0.009-0.14-0.007-0.341-0.032-0.606-0.079-0.271-0.045-0.508-0.11-0.716-0.196-0.207-0.084-0.436-0.217-0.684-0.401-0.25-0.182-0.457-0.394-0.628-0.635-0.168-0.241-0.309-0.555-0.42-0.939-0.109-0.386-0.166-0.819-0.166-1.301 0-0.743 0.242-1.376 0.725-1.898-0.053-0.026-0.056-0.286-0.008-0.782 0.043-0.496 0.148-0.953 0.319-1.37 0.602 0.064 1.343 0.404 2.23 1.017 0.3-0.078 0.71-0.118 1.233-0.118 0.549 0 0.959 0.040 1.234 0.118 0.404-0.273 0.791-0.496 1.16-0.666 0.374-0.168 0.644-0.267 0.814-0.293l0.254-0.058c0.172 0.417 0.277 0.875 0.32 1.37 0.050 0.496 0.047 0.756-0.006 0.782M12.021 15.364c1.083 0 1.899-0.129 2.454-0.39 0.553-0.26 0.833-0.796 0.833-1.605 0-0.469-0.176-0.861-0.529-1.174-0.181-0.17-0.394-0.273-0.638-0.313-0.238-0.039-0.607-0.039-1.104 0-0.495 0.040-0.834 0.058-1.016 0.058-0.248 0-0.517-0.013-0.851-0.039s-0.596-0.041-0.783-0.049c-0.191-0.006-0.395 0.018-0.616 0.069-0.223 0.053-0.404 0.143-0.55 0.273-0.336 0.3-0.507 0.691-0.507 1.174 0 0.809 0.274 1.345 0.821 1.605 0.547 0.261 1.361 0.39 2.444 0.39M10.455 12.626c0.17 0 0.316 0.084 0.44 0.255 0.124 0.169 0.187 0.378 0.187 0.625s-0.062 0.457-0.187 0.626c-0.124 0.169-0.271 0.254-0.44 0.254-0.182 0-0.337-0.084-0.462-0.254s-0.187-0.378-0.187-0.626c0-0.248 0.062-0.456 0.187-0.625 0.125-0.171 0.28-0.255 0.462-0.255"></path>
</symbol>
<symbol id="icon-flow-switch" viewBox="0 0 24 24">
<title>flow-switch</title>
<path d="M8 16.184v-0.684c0-0.848 0.512-1.595 1.287-2.047-0.667-0.282-1.279-0.667-1.822-1.131-0.904 0.814-1.465 1.938-1.465 3.178v0.684c-1.161 0.415-2 1.514-2 2.816 0 1.654 1.346 3 3 3s3-1.346 3-3c0-1.302-0.839-2.401-2-2.816zM7 20c-0.552 0-1-0.449-1-1s0.448-1 1-1 1 0.449 1 1-0.448 1-1 1z"></path>
<path d="M16 7.815v0.351c0 0.985-0.535 1.852-1.345 2.36 0.665 0.274 1.279 0.646 1.823 1.1 0.936-0.878 1.522-2.102 1.522-3.459v-0.351c1.161-0.415 2-1.514 2-2.816 0-1.654-1.346-3-3-3s-3 1.346-3 3c0 1.302 0.839 2.401 2 2.815zM17 4c0.552 0 1 0.449 1 1s-0.448 1-1 1-1-0.449-1-1 0.448-1 1-1z"></path>
<path d="M17.935 16.164c-0.41-2.913-2.911-5.164-5.935-5.164-1.936 0-3.552-1.381-3.92-3.209 1.12-0.436 1.92-1.519 1.92-2.791 0-1.654-1.346-3-3-3s-3 1.346-3 3c0 1.326 0.87 2.44 2.065 2.836 0.41 2.913 2.911 5.164 5.935 5.164 1.936 0 3.552 1.381 3.92 3.209-1.12 0.436-1.92 1.519-1.92 2.791 0 1.654 1.346 3 3 3s3-1.346 3-3c0-1.326-0.87-2.44-2.065-2.836zM7 4c0.552 0 1 0.449 1 1s-0.448 1-1 1-1-0.449-1-1 0.448-1 1-1zM17 20c-0.552 0-1-0.449-1-1s0.448-1 1-1 1 0.449 1 1-0.448 1-1 1z"></path>
</symbol>
<symbol id="icon-flow-parallel" viewBox="0 0 24 24">
<title>flow-parallel</title>
<path d="M18 16.184v-8.368c1.161-0.415 2-1.514 2-2.816 0-1.654-1.346-3-3-3s-3 1.346-3 3c0 1.302 0.839 2.401 2 2.815v8.369c-1.161 0.415-2 1.514-2 2.816 0 1.654 1.346 3 3 3s3-1.346 3-3c0-1.302-0.839-2.401-2-2.816zM17 4c0.552 0 1 0.449 1 1s-0.448 1-1 1-1-0.449-1-1 0.448-1 1-1zM17 20c-0.552 0-1-0.449-1-1s0.448-1 1-1 1 0.449 1 1-0.448 1-1 1z"></path>
<path d="M10 5c0-1.654-1.346-3-3-3s-3 1.346-3 3c0 1.302 0.839 2.401 2 2.815v8.369c-1.161 0.415-2 1.514-2 2.816 0 1.654 1.346 3 3 3s3-1.346 3-3c0-1.302-0.839-2.401-2-2.816v-8.368c1.161-0.415 2-1.514 2-2.816zM7 4c0.552 0 1 0.449 1 1s-0.448 1-1 1-1-0.449-1-1 0.448-1 1-1zM7 20c-0.552 0-1-0.449-1-1s0.448-1 1-1 1 0.449 1 1-0.448 1-1 1z"></path>
</symbol>
<symbol id="icon-flow-merge" viewBox="0 0 24 24">
<title>flow-merge</title>
<path d="M18 16.184v-1.851c0-1.93-1.57-3.5-3.5-3.5-0.827 0-1.5-0.673-1.5-1.5v-1.517c1.161-0.415 2-1.514 2-2.816 0-1.654-1.346-3-3-3s-3 1.346-3 3c0 1.302 0.839 2.401 2 2.815v1.518c0 0.827-0.673 1.5-1.5 1.5-1.93 0-3.5 1.57-3.5 3.5v1.851c-1.161 0.415-2 1.514-2 2.816 0 1.654 1.346 3 3 3s3-1.346 3-3c0-1.302-0.839-2.401-2-2.816v-1.851c0-0.827 0.673-1.5 1.5-1.5 0.979 0 1.864-0.407 2.5-1.058 0.636 0.651 1.521 1.058 2.5 1.058 0.827 0 1.5 0.673 1.5 1.5v1.851c-1.161 0.415-2 1.514-2 2.816 0 1.654 1.346 3 3 3s3-1.346 3-3c0-1.302-0.839-2.401-2-2.816zM7 20c-0.552 0-1-0.449-1-1s0.448-1 1-1 1 0.449 1 1-0.448 1-1 1zM12 4c0.552 0 1 0.449 1 1s-0.448 1-1 1-1-0.449-1-1 0.448-1 1-1zM17 20c-0.552 0-1-0.449-1-1s0.448-1 1-1 1 0.449 1 1-0.448 1-1 1z"></path>
</symbol>
<symbol id="icon-puzzle-outline" viewBox="0 0 24 24">
<title>puzzle-outline</title>
<path d="M20 11.25v-1.75c0-1.93-1.57-3.5-3.5-3.5h-0.759c-0.141-1.982-1.953-3.5-4.241-3.5s-4.1 1.518-4.241 3.5h-0.759c-1.93 0-3.5 1.57-3.5 3.5v1.75c0 1.012 0.514 1.847 1.295 2.246-0.358 0.188-0.668 0.469-0.894 0.825-0.262 0.414-0.401 0.908-0.401 1.429v2.75c0 1.93 1.57 3.5 3.5 3.5h2.75c0.976 0 1.831-0.497 2.242-1.299 0.013 0.024 0.024 0.046 0.036 0.066 0.435 0.772 1.266 1.233 2.222 1.233h2.75c1.93 0 3.5-1.57 3.5-3.5v-2.75c0-1.013-0.515-1.849-1.297-2.247 0.776-0.411 1.297-1.256 1.297-2.253zM18 18.5c0 0.825-0.675 1.5-1.5 1.5h-2.75c-0.356 0-0.724-0.216-0.391-0.766 0.246-0.28 0.391-0.619 0.391-0.984 0-0.967-1.007-1.75-2.25-1.75s-2.25 0.783-2.25 1.75c0 0.3 0.095 0.576 0.255 0.823 0.507 0.673 0.136 0.927-0.255 0.927h-2.75c-0.825 0-1.5-0.675-1.5-1.5v-2.75c0-0.258 0.113-0.521 0.384-0.521 0.104 0 0.229 0.039 0.382 0.13 0.28 0.246 0.62 0.391 0.984 0.391 0.966 0 1.75-1.008 1.75-2.25s-0.784-2.25-1.75-2.25c-0.3 0-0.576 0.095-0.822 0.255-0.237 0.171-0.422 0.243-0.562 0.243-0.26 0-0.366-0.245-0.366-0.498v-1.75c0-0.825 0.675-1.5 1.5-1.5h2.75c0.391 0 0.762-0.254 0.243-0.927-0.148-0.247-0.243-0.523-0.243-0.823 0-0.967 1.007-1.75 2.25-1.75s2.25 0.783 2.25 1.75c0 0.365-0.145 0.704-0.391 0.984-0.333 0.55 0.035 0.766 0.391 0.766h2.75c0.825 0 1.5 0.675 1.5 1.5v1.75c0 0.258-0.113 0.521-0.384 0.521-0.104 0-0.229-0.039-0.382-0.13-0.28-0.246-0.62-0.391-0.984-0.391-0.966 0-1.75 1.008-1.75 2.25s0.784 2.25 1.75 2.25c0.3 0 0.576-0.095 0.822-0.255 0.237-0.171 0.422-0.244 0.562-0.243 0.259 0 0.365 0.245 0.365 0.498v2.75zM5 12.694c0.116 0.032 0.236 0.054 0.365 0.054 0.342 0 0.683-0.119 1.038-0.364 0.023-0.013 0.047-0.026 0.069-0.041 0.097-0.063 0.188-0.093 0.278-0.093 0.354 0 0.75 0.535 0.75 1.25s-0.396 1.25-0.75 1.25c-0.108 0-0.217-0.048-0.324-0.142-0.045-0.039-0.092-0.074-0.143-0.104-0.301-0.183-0.604-0.275-0.899-0.275-0.134 0-0.261 0.023-0.384 0.059v-1.594zM17.635 14.252c-0.342 0-0.683 0.119-1.038 0.364-0.023 0.013-0.047 0.026-0.069 0.041-0.097 0.063-0.188 0.093-0.277 0.093-0.354 0-0.75-0.535-0.75-1.25s0.396-1.25 0.75-1.25c0.108 0 0.217 0.048 0.324 0.142 0.045 0.039 0.092 0.074 0.143 0.104 0.302 0.183 0.604 0.275 0.899 0.275 0.136 0 0.262-0.025 0.384-0.062v1.597c-0.117-0.032-0.237-0.054-0.366-0.054zM10.692 20c0.101-0.346 0.093-0.816-0.305-1.396-0.014-0.025-0.028-0.050-0.044-0.074-0.062-0.098-0.094-0.189-0.094-0.279 0-0.354 0.534-0.75 1.25-0.75s1.25 0.396 1.25 0.75c0 0.108-0.048 0.217-0.143 0.325-0.038 0.044-0.073 0.091-0.104 0.142-0.325 0.537-0.311 0.979-0.22 1.284h-1.59z"></path>
</symbol>
<symbol id="icon-social-flickr-circular" viewBox="0 0 24 24">
<title>social-flickr-circular</title>
<path d="M12 21c-2.489 0-4.635-0.89-6.376-2.646-1.741-1.751-2.624-3.889-2.624-6.354 0-2.488 0.884-4.634 2.627-6.375 1.74-1.741 3.885-2.625 6.373-2.625 2.466 0 4.604 0.883 6.354 2.624 1.755 1.742 2.646 3.888 2.646 6.376 0 2.465-0.89 4.604-2.644 6.357-1.751 1.753-3.889 2.643-6.356 2.643zM12 5c-1.966 0-3.588 0.667-4.958 2.040-1.374 1.372-2.042 2.994-2.042 4.96 0 1.944 0.668 3.562 2.043 4.945 1.372 1.383 2.993 2.055 4.957 2.055 1.943 0 3.56-0.673 4.941-2.057 1.386-1.384 2.059-3.002 2.059-4.943 0-1.963-0.672-3.585-2.055-4.957-1.383-1.375-3-2.043-4.945-2.043z"></path>
<path d="M9 14.5c-1.379 0-2.5-1.121-2.5-2.5s1.121-2.5 2.5-2.5 2.5 1.121 2.5 2.5-1.121 2.5-2.5 2.5zM9 10.5c-0.827 0-1.5 0.673-1.5 1.5s0.673 1.5 1.5 1.5 1.5-0.673 1.5-1.5-0.673-1.5-1.5-1.5z"></path>
<path d="M15 14.5c-1.379 0-2.5-1.121-2.5-2.5s1.121-2.5 2.5-2.5 2.5 1.121 2.5 2.5-1.121 2.5-2.5 2.5z"></path>
</symbol>
<symbol id="icon-messages" viewBox="0 0 24 24">
<title>messages</title>
<path d="M21 7h-3c0-1.65-1.35-3-3-3h-12c-1.65 0-3 1.35-3 3v7c0 1.65 1.35 3 3 3v3l3-3c0 1.65 1.35 3 3 3h8l3 3v-3h1c1.65 0 3-1.35 3-3v-7c0-1.65-1.35-3-3-3zM3 15c-0.542 0-1-0.458-1-1v-7c0-0.542 0.458-1 1-1h12c0.542 0 1 0.458 1 1v1h-6.5c-1.379 0-2.5 1.121-2.5 2.5v4.5h-4zM22 17c0 0.542-0.458 1-1 1h-12c-0.542 0-1-0.458-1-1v-6.5c0-0.827 0.673-1.5 1.5-1.5h11.5c0.542 0 1 0.458 1 1v7z"></path>
</symbol>
</defs>
</svg>
