<!-- Generated by IcoMoon.io -->
<svg version="1.1" xmlns="http://www.w3.org/2000/svg" width="24" height="24" viewBox="0 0 24 24">
<title>chart-line</title>
<path d="M4.75 15.561c0.369 0.294 0.811 0.439 1.248 0.439 0.588 0 1.168-0.258 1.563-0.752l2.789-3.486 2.45 1.838c0.864 0.648 2.088 0.492 2.762-0.352l4-5c0.69-0.861 0.55-2.121-0.312-2.811-0.863-0.689-2.121-0.551-2.812 0.312l-2.789 3.486-2.449-1.835c-0.864-0.648-2.087-0.494-2.762 0.35l-4 5c-0.69 0.863-0.549 2.121 0.312 2.811z"></path>
<path d="M5 21h14c0.553 0 1-0.447 1-1s-0.447-1-1-1h-14c-0.553 0-1 0.447-1 1s0.447 1 1 1z"></path>
</svg>
